<?xml version="1.0" standalone="no"?>
<!DOCTYPE svg PUBLIC "-//W3C//DTD SVG 20010904//EN"
 "http://www.w3.org/TR/2001/REC-SVG-20010904/DTD/svg10.dtd">
<svg version="1.0" xmlns="http://www.w3.org/2000/svg"
 width="147.000000pt" height="36.000000pt" viewBox="0 0 147.000000 36.000000"
 preserveAspectRatio="xMidYMid meet">
<metadata>
Created by potrace 1.16, written by Peter Selinger 2001-2019
</metadata>
<g transform="translate(0.000000,36.000000) scale(0.022443,-0.008531)"
fill="#000000" stroke="none">
<path d="M0 2110 l0 -2110 3275 0 3275 0 0 2110 0 2110 -3275 0 -3275 0 0
-2110z m4845 455 c30 -13 30 -13 5 -15 -14 -1 -28 -2 -32 -1 -4 0 -10 -11 -14
-27 -11 -50 -25 -103 -31 -118 -5 -12 2 -15 33 -12 36 3 40 6 57 53 25 67 37
78 37 32 0 -46 -33 -81 -119 -127 -65 -35 -91 -69 -104 -138 -11 -57 -56 -136
-92 -160 -57 -39 -110 -50 -232 -45 -71 2 -114 0 -118 -7 -3 -6 -11 -7 -17 -4
-21 13 -258 4 -316 -12 -63 -18 -122 -19 -197 -4 -44 9 -60 7 -124 -15 -80
-27 -140 -32 -173 -14 -16 8 -19 8 -13 -1 5 -9 3 -9 -11 -2 -18 9 -57 8 -113
-4 -14 -2 -66 -7 -116 -10 -175 -9 -200 -12 -229 -23 -35 -14 -141 -12 -196 2
-31 9 -49 7 -106 -13 -60 -20 -80 -22 -165 -16 -87 5 -103 3 -161 -18 -55 -21
-75 -23 -158 -19 -88 4 -186 5 -270 2 -61 -2 -80 1 -80 11 0 6 17 10 39 10
l39 0 6 73 c3 39 8 135 11 212 4 77 8 150 11 163 4 20 1 22 -41 22 l-45 0 -36
-72 -37 -73 -25 68 -25 69 -44 -6 c-37 -4 -41 -3 -30 9 20 19 106 30 327 40
69 4 154 14 190 22 49 12 127 17 320 18 200 2 267 6 310 18 59 18 99 21 200
17 38 -1 87 4 119 14 65 19 115 20 194 4 51 -11 67 -10 125 6 52 15 106 20
237 21 94 2 186 5 205 8 19 3 89 11 155 16 66 6 143 13 170 16 28 2 69 4 93 4
24 0 80 8 125 17 59 12 101 14 152 9 85 -9 140 -8 180 3 47 13 97 12 130 -3z
m-3259 -427 c-4 -101 -11 -201 -15 -223 l-7 -40 -17 39 c-20 44 -24 241 -7
314 10 41 36 92 48 92 3 0 2 -82 -2 -182z m145 -78 c4 0 18 21 31 46 12 25 24
40 26 34 3 -7 1 -72 -3 -146 l-7 -134 -43 0 c-24 0 -49 -2 -57 -5 -11 -4 -12
17 -6 112 3 65 7 134 8 153 l2 35 21 -47 c11 -27 24 -48 28 -48z"/>
<path d="M4376 2493 c-2 -16 -8 -102 -11 -193 -3 -91 -9 -185 -12 -209 l-6
-44 82 6 c93 6 135 26 164 75 16 27 20 60 25 182 l5 149 -31 30 c-29 30 -33
31 -120 31 l-90 0 -6 -27z m147 -185 c-2 -140 -10 -168 -50 -168 l-26 0 6 83
c4 45 7 113 7 150 l0 68 33 -3 32 -3 -2 -127z"/>
<path d="M4215 2498 c-2 -7 -8 -67 -12 -133 l-8 -120 -35 125 -36 125 -44 -3
c-25 -2 -46 -5 -48 -7 -1 -1 -5 -38 -7 -81 -13 -246 -16 -293 -21 -338 l-5
-49 46 5 c25 3 48 7 50 10 2 2 5 59 6 126 1 67 5 120 8 116 3 -3 20 -56 37
-117 l31 -112 50 -3 50 -3 7 123 c3 68 9 174 13 236 l6 112 -42 0 c-24 0 -43
-5 -46 -12z"/>
<path d="M3898 2483 c-35 -5 -35 -8 -43 -203 -7 -162 -14 -190 -45 -190 -30 0
-35 22 -28 122 3 51 7 131 7 178 l1 85 -44 -3 -44 -4 -7 -156 c-3 -87 -6 -164
-7 -172 -2 -50 5 -73 31 -102 25 -28 34 -32 78 -31 103 1 138 53 147 218 4 61
9 145 12 188 7 85 10 80 -58 70z"/>
<path d="M3451 2442 c-53 -26 -72 -60 -82 -143 -13 -117 -11 -236 5 -268 37
-71 162 -66 216 9 19 27 24 52 33 166 11 160 6 194 -34 228 -37 31 -88 34
-138 8z m77 -74 c8 -8 10 -45 6 -127 -3 -64 -7 -126 -10 -138 -6 -31 -40 -49
-61 -32 -13 11 -14 33 -8 144 5 95 11 135 23 148 18 20 33 22 50 5z"/>
<path d="M3073 2422 c-8 -5 -16 -73 -23 -207 -5 -110 -11 -213 -13 -230 -2
-30 -1 -30 43 -27 25 2 46 5 47 5 0 1 2 38 4 82 3 80 13 120 28 110 5 -2 16
-45 26 -95 l17 -90 49 0 c27 0 49 3 49 8 0 4 -11 49 -25 100 l-26 92 27 36
c50 65 41 183 -15 214 -23 12 -170 13 -188 2z"/>
<path d="M2794 2391 c-54 -33 -64 -71 -67 -246 l-2 -156 28 -25 c22 -18 40
-24 79 -24 99 0 139 49 146 178 l5 83 -64 -3 -64 -3 -3 -37 c-3 -33 0 -38 19
-38 19 0 21 -4 14 -37 -4 -21 -11 -44 -17 -50 -15 -18 -45 -16 -52 4 -9 23 4
254 16 276 19 37 76 8 65 -33 -5 -19 -2 -21 41 -18 43 3 47 5 50 32 4 36 -15
83 -42 101 -30 21 -114 19 -152 -4z"/>
<path d="M2608 2393 c-23 -3 -28 -10 -28 -31 -1 -63 -20 -327 -26 -344 -4 -14
-13 -18 -32 -16 -26 3 -27 5 -27 63 0 33 3 117 7 188 l8 127 -44 0 c-54 0 -53
6 -61 -220 -7 -187 -2 -204 57 -233 48 -23 99 -15 144 25 41 36 50 80 60 283
3 83 7 152 8 155 1 7 -33 8 -66 3z"/>
<path d="M2178 2363 l-58 -4 0 -39 0 -40 65 0 c36 0 65 -2 65 -5 0 -3 -34 -73
-75 -155 -56 -112 -75 -160 -75 -190 l0 -41 108 7 c59 3 113 7 120 10 7 2 12
20 12 44 l0 41 -70 -7 c-38 -3 -70 -4 -70 -1 0 4 33 73 74 154 40 81 77 167
81 191 l7 42 -64 -2 c-34 -1 -89 -3 -120 -5z"/>
<path d="M1966 2298 c-3 -29 -8 -118 -11 -198 -3 -80 -8 -162 -11 -183 l-6
-38 49 3 48 3 6 115 c4 63 10 168 14 233 l6 117 -45 0 -45 0 -5 -52z"/>
</g>
</svg>
